<svg xmlns="http://www.w3.org/2000/svg" viewBox="0 0 240 240" role="img" aria-label="Ảnh đại diện em bé mặc định">
  <defs><linearGradient id="g" x1="0" y1="0" x2="1" y2="1"><stop stop-color="#eeeaff"/><stop offset="1" stop-color="#d9f5ef"/></linearGradient></defs>
  <rect width="240" height="240" rx="56" fill="url(#g)"/>
  <circle cx="120" cy="105" r="58" fill="#ffd7bd"/>
  <path d="M67 103c3-47 28-72 59-72 19 0 39 12 47 29-18-8-35-5-44 8-16-8-34-2-45 15-6 8-11 14-17 20z" fill="#675bd4"/>
  <circle cx="98" cy="108" r="5" fill="#333344"/><circle cx="143" cy="108" r="5" fill="#333344"/>
  <path d="M104 133c10 9 23 9 33 0" fill="none" stroke="#b86c70" stroke-width="5" stroke-linecap="round"/>
  <path d="M50 222c8-44 36-70 70-70s62 26 70 70" fill="#70d5c5"/>
</svg>
